<?xml version="1.0" encoding="iso-8859-1"?>
<!-- Uploaded to: SVG Repo, www.svgrepo.com, Generator: SVG Repo Mixer Tools -->
<svg version="1.1" id="Layer_1" xmlns="http://www.w3.org/2000/svg" xmlns:xlink="http://www.w3.org/1999/xlink" 
	 viewBox="0 0 512 512" xml:space="preserve">
<circle style="fill:#45B39C;" cx="256" cy="256" r="256"/>
<path style="opacity:0.1;enable-background:new    ;" d="M511.109,276.48L399.675,165.045h-0.005
	c-0.939-0.928-2.032-1.925-3.248-2.944c-0.645-0.539-1.365-1.083-2.053-1.627l-51.12-51.12H121.435v2.933
	c-6.027,0-12.107,1.973-12.107,5.707c0,1.008,0.491,1.877,1.28,2.624h-0.037l4.288,4.288c-3.2,0.896-5.531,2.507-5.531,4.816
	c0,1.024,0.491,1.899,1.275,2.645h-0.037l4.283,4.283c-3.195,0.907-5.525,2.528-5.525,4.8c0,1.029,0.496,1.909,1.291,2.667h-0.048
	l4.299,4.299c-3.205,0.896-5.536,2.507-5.536,4.816c0,1.019,0.485,1.888,1.264,2.635h-0.021l4.283,4.283
	c-3.195,0.896-5.52,2.507-5.52,4.816c0,1.024,0.491,1.904,1.28,2.661h-0.037l4.277,4.277c-3.195,0.912-5.52,2.544-5.52,4.848
	c0,1.008,0.491,1.877,1.28,2.629h-0.037l4.288,4.288c-3.2,0.896-5.531,2.507-5.531,4.816c0,1.024,0.491,1.899,1.28,2.651h-0.037
	l4.283,4.283c-3.195,0.907-5.525,2.523-5.525,4.8c0,1.029,0.496,1.915,1.291,2.667l-0.053,0.005l4.267,4.272
	c-3.189,0.912-5.509,2.544-5.509,4.843c0,1.019,0.485,1.893,1.269,2.64h-0.027l4.277,4.277c-3.195,0.896-5.52,2.507-5.52,4.811
	c0,1.029,0.496,1.909,1.291,2.661l-0.053,0.005l4.277,4.277c-3.195,0.912-5.52,2.544-5.52,4.848c0,1.013,0.491,1.883,1.28,2.629
	h-0.043l4.288,4.288c-3.2,0.896-5.531,2.507-5.531,4.816c0,1.024,0.491,1.899,1.28,2.651h-0.037l4.283,4.283
	c-3.195,0.907-5.52,2.523-5.52,4.8c0,1.029,0.496,1.915,1.296,2.672l-0.053,0.005l4.267,4.267c-3.189,0.912-5.509,2.539-5.509,4.843
	c0,1.024,0.485,1.893,1.269,2.64h-0.027l4.277,4.277c-3.195,0.896-5.52,2.507-5.52,4.811c0,1.029,0.496,1.909,1.296,2.661
	l-0.053,0.005l4.277,4.277c-3.189,0.912-5.515,2.544-5.515,4.848c0,1.013,0.491,1.883,1.285,2.629h-0.043l4.288,4.283
	c-3.2,0.896-5.525,2.507-5.525,4.816c0,1.024,0.491,1.904,1.285,2.651h-0.043l4.277,4.283c-3.195,0.907-5.52,2.523-5.52,4.8
	c0,1.029,0.496,1.915,1.296,2.672l-0.053,0.005l4.267,4.267c-3.189,0.912-5.509,2.539-5.509,4.843c0,1.024,0.485,1.893,1.269,2.64
	h-0.032l4.277,4.277c-3.195,0.896-5.52,2.507-5.52,4.811c0,1.035,0.496,1.909,1.296,2.661l-0.053,0.005l4.272,4.272
	c-3.189,0.912-5.515,2.544-5.515,4.848c0,1.013,0.491,1.883,1.285,2.629l-0.043,0.005l4.283,4.283
	c-3.195,0.896-5.525,2.507-5.525,4.816c0,1.029,0.491,1.904,1.285,2.656l-0.043,0.005l4.277,4.277c-3.195,0.907-5.52,2.523-5.52,4.8
	c0,1.035,0.496,1.915,1.296,2.677l-0.059,0.005l4.267,4.267c-3.184,0.912-5.504,2.539-5.504,4.843c0,1.024,0.485,1.899,1.275,2.645
	h-0.032l8.997,8.997h1.867v2.704l107.931,107.931C238.123,511.525,247.008,512,256,512C390.485,512,500.667,408.277,511.109,276.48z
	"/>
<rect x="126.875" y="109.333" style="fill:#E1E6E9;" width="216.352" height="293.333"/>
<rect x="121.456" y="109.333" style="fill:#FFFFFF;" width="216.352" height="293.333"/>
<g>
	<circle style="fill:#2F4859;" cx="129.984" cy="120.789" r="2.523"/>
	<circle style="fill:#2F4859;" cx="129.984" cy="132.549" r="2.523"/>
	<circle style="fill:#2F4859;" cx="129.984" cy="144.32" r="2.523"/>
	<circle style="fill:#2F4859;" cx="129.984" cy="156.053" r="2.523"/>
	<circle style="fill:#2F4859;" cx="129.984" cy="167.819" r="2.523"/>
	<circle style="fill:#2F4859;" cx="129.984" cy="179.579" r="2.523"/>
	<circle style="fill:#2F4859;" cx="129.984" cy="191.333" r="2.523"/>
	<circle style="fill:#2F4859;" cx="129.984" cy="203.093" r="2.523"/>
	<circle style="fill:#2F4859;" cx="129.984" cy="214.827" r="2.523"/>
	<circle style="fill:#2F4859;" cx="129.984" cy="226.608" r="2.523"/>
	<circle style="fill:#2F4859;" cx="129.984" cy="238.363" r="2.523"/>
	<circle style="fill:#2F4859;" cx="129.984" cy="250.123" r="2.523"/>
	<circle style="fill:#2F4859;" cx="129.984" cy="261.867" r="2.523"/>
	<circle style="fill:#2F4859;" cx="129.984" cy="273.653" r="2.523"/>
	<circle style="fill:#2F4859;" cx="129.984" cy="285.387" r="2.523"/>
	<circle style="fill:#2F4859;" cx="129.984" cy="297.152" r="2.523"/>
	<circle style="fill:#2F4859;" cx="129.984" cy="308.907" r="2.523"/>
	<circle style="fill:#2F4859;" cx="129.984" cy="320.64" r="2.523"/>
	<circle style="fill:#2F4859;" cx="129.984" cy="332.427" r="2.523"/>
	<circle style="fill:#2F4859;" cx="129.984" cy="344.16" r="2.523"/>
	<circle style="fill:#2F4859;" cx="129.984" cy="355.936" r="2.523"/>
	<circle style="fill:#2F4859;" cx="129.984" cy="367.696" r="2.523"/>
	<circle style="fill:#2F4859;" cx="129.984" cy="379.467" r="2.523"/>
	<circle style="fill:#2F4859;" cx="129.984" cy="391.2" r="2.523"/>
</g>
<g>
	<path style="fill:#3A556A;" d="M130.603,120.389c-0.293-0.672-1.083-0.987-1.755-0.693c-1.883,0.811-4.576,1.28-7.397,1.28
		c-5.867,0-9.451-1.941-9.451-3.003c0-1.056,3.589-3.003,9.451-3.003v-2.667c-6.021,0-12.117,1.947-12.117,5.669
		c0,3.717,6.101,5.669,12.117,5.669c3.221,0,6.219-0.533,8.459-1.499C130.581,121.851,130.896,121.067,130.603,120.389z"/>
	<path style="fill:#3A556A;" d="M130.603,132.144c-0.293-0.672-1.083-0.987-1.755-0.693c-1.883,0.811-4.576,1.28-7.397,1.28
		c-5.867,0-9.451-1.941-9.451-2.997s3.589-3.008,9.451-3.008v-2.667c-6.021,0-12.117,1.947-12.117,5.675
		c0,3.717,6.101,5.664,12.117,5.664c3.221,0,6.219-0.533,8.459-1.499C130.581,133.605,130.896,132.821,130.603,132.144z"/>
	<path style="fill:#3A556A;" d="M130.603,143.899c-0.293-0.672-1.083-0.981-1.755-0.693c-1.883,0.811-4.576,1.28-7.397,1.28
		c-5.867,0-9.451-1.941-9.451-3.003c0-1.056,3.589-3.003,9.451-3.003v-2.667c-6.021,0-12.117,1.947-12.117,5.669
		c0,3.717,6.101,5.669,12.117,5.669c3.221,0,6.219-0.533,8.459-1.499C130.581,145.36,130.896,144.576,130.603,143.899z"/>
	<path style="fill:#3A556A;" d="M130.603,155.653c-0.293-0.672-1.083-0.987-1.755-0.693c-1.883,0.811-4.576,1.28-7.397,1.28
		c-5.867,0-9.451-1.941-9.451-3.003c0-1.056,3.589-3.003,9.451-3.003v-2.667c-6.021,0-12.117,1.947-12.117,5.669
		c0,3.717,6.101,5.669,12.117,5.669c3.221,0,6.219-0.533,8.459-1.499C130.581,157.115,130.896,156.331,130.603,155.653z"/>
	<path style="fill:#3A556A;" d="M130.603,167.408c-0.293-0.672-1.083-0.981-1.755-0.693c-1.883,0.811-4.576,1.28-7.397,1.28
		c-5.867,0-9.451-1.941-9.451-3.003c0-1.056,3.589-3.003,9.451-3.003v-2.667c-6.021,0-12.117,1.947-12.117,5.669
		c0,3.717,6.101,5.669,12.117,5.669c3.221,0,6.219-0.533,8.459-1.499C130.581,168.869,130.896,168.085,130.603,167.408z"/>
	<path style="fill:#3A556A;" d="M130.603,179.163c-0.293-0.672-1.083-0.987-1.755-0.693c-1.883,0.811-4.576,1.28-7.397,1.28
		c-5.867,0-9.451-1.941-9.451-3.003c0-1.056,3.589-3.003,9.451-3.003v-2.667c-6.021,0-12.117,1.947-12.117,5.669
		c0,3.717,6.101,5.669,12.117,5.669c3.221,0,6.219-0.533,8.459-1.499C130.581,180.624,130.896,179.84,130.603,179.163z"/>
	<path style="fill:#3A556A;" d="M130.603,190.917c-0.293-0.672-1.083-0.987-1.755-0.693c-1.883,0.811-4.576,1.28-7.397,1.28
		c-5.867,0-9.451-1.941-9.451-3.003c0-1.056,3.589-3.008,9.451-3.008v-2.667c-6.021,0-12.117,1.947-12.117,5.675
		c0,3.717,6.101,5.669,12.117,5.669c3.221,0,6.219-0.533,8.459-1.499C130.581,192.379,130.896,191.595,130.603,190.917z"/>
	<path style="fill:#3A556A;" d="M130.603,202.672c-0.293-0.672-1.083-0.987-1.755-0.693c-1.883,0.811-4.576,1.28-7.397,1.28
		c-5.867,0-9.451-1.941-9.451-3.003c0-1.056,3.589-3.003,9.451-3.003v-2.667c-6.021,0-12.117,1.947-12.117,5.669
		c0,3.717,6.101,5.669,12.117,5.669c3.221,0,6.219-0.533,8.459-1.499C130.581,204.133,130.896,203.344,130.603,202.672z"/>
	<path style="fill:#3A556A;" d="M130.603,214.421c-0.293-0.672-1.083-0.981-1.755-0.693c-1.883,0.811-4.576,1.28-7.397,1.28
		c-5.867,0-9.451-1.941-9.451-3.003c0-1.056,3.589-3.003,9.451-3.003v-2.667c-6.021,0-12.117,1.947-12.117,5.669
		c0,3.717,6.101,5.669,12.117,5.669c3.221,0,6.219-0.533,8.459-1.499C130.581,215.888,130.896,215.104,130.603,214.421z"/>
	<path style="fill:#3A556A;" d="M130.603,226.181c-0.293-0.672-1.083-0.987-1.755-0.693c-1.883,0.811-4.576,1.28-7.397,1.28
		c-5.867,0-9.451-1.941-9.451-3.003c0-1.056,3.589-3.003,9.451-3.003v-2.667c-6.021,0-12.117,1.947-12.117,5.669
		c0,3.717,6.101,5.669,12.117,5.669c3.221,0,6.219-0.533,8.459-1.499C130.581,227.643,130.896,226.853,130.603,226.181z"/>
	<path style="fill:#3A556A;" d="M130.603,237.931c-0.293-0.672-1.083-0.987-1.755-0.693c-1.883,0.811-4.576,1.28-7.397,1.28
		c-5.867,0-9.451-1.941-9.451-3.003s3.589-3.003,9.451-3.003v-2.667c-6.021,0-12.117,1.947-12.117,5.669
		c0,3.717,6.101,5.669,12.117,5.669c3.221,0,6.219-0.533,8.459-1.499C130.581,239.397,130.896,238.608,130.603,237.931z"/>
	<path style="fill:#3A556A;" d="M130.603,249.685c-0.293-0.672-1.083-0.987-1.755-0.693c-1.883,0.811-4.576,1.28-7.397,1.28
		c-5.867,0-9.451-1.941-9.451-3.003c0-1.056,3.589-3.003,9.451-3.003V241.6c-6.021,0-12.117,1.947-12.117,5.669
		c0,3.717,6.101,5.669,12.117,5.669c3.221,0,6.219-0.533,8.459-1.499C130.581,251.152,130.896,250.363,130.603,249.685z"/>
	<path style="fill:#3A556A;" d="M130.603,261.44c-0.293-0.672-1.083-0.987-1.755-0.693c-1.883,0.811-4.576,1.28-7.397,1.28
		c-5.867,0-9.451-1.941-9.451-3.003s3.589-3.003,9.451-3.003v-2.667c-6.021,0-12.117,1.947-12.117,5.669
		c0,3.717,6.101,5.669,12.117,5.669c3.221,0,6.219-0.533,8.459-1.499C130.581,262.907,130.896,262.117,130.603,261.44z"/>
	<path style="fill:#3A556A;" d="M130.603,273.195c-0.293-0.672-1.083-0.987-1.755-0.693c-1.883,0.811-4.576,1.28-7.397,1.28
		c-5.867,0-9.451-1.941-9.451-3.003c0-1.056,3.589-3.003,9.451-3.003v-2.667c-6.021,0-12.117,1.947-12.117,5.669
		c0,3.717,6.101,5.669,12.117,5.669c3.221,0,6.219-0.533,8.459-1.499C130.581,274.661,130.896,273.872,130.603,273.195z"/>
	<path style="fill:#3A556A;" d="M130.603,284.949c-0.293-0.672-1.083-0.987-1.755-0.693c-1.883,0.811-4.576,1.28-7.397,1.28
		c-5.867,0-9.451-1.941-9.451-3.003c0-1.056,3.589-3.003,9.451-3.003v-2.667c-6.021,0-12.117,1.947-12.117,5.669
		c0,3.717,6.101,5.669,12.117,5.669c3.221,0,6.219-0.533,8.459-1.499C130.581,286.416,130.896,285.627,130.603,284.949z"/>
	<path style="fill:#3A556A;" d="M130.603,296.704c-0.293-0.672-1.083-0.987-1.755-0.693c-1.883,0.811-4.576,1.28-7.397,1.28
		c-5.867,0-9.451-1.941-9.451-3.003c0-1.056,3.589-3.003,9.451-3.003v-2.667c-6.021,0-12.117,1.947-12.117,5.669
		c0,3.717,6.101,5.669,12.117,5.669c3.221,0,6.219-0.533,8.459-1.499C130.581,298.171,130.896,297.381,130.603,296.704z"/>
	<path style="fill:#3A556A;" d="M130.603,308.459c-0.293-0.672-1.083-0.987-1.755-0.693c-1.883,0.811-4.576,1.28-7.397,1.28
		c-5.867,0-9.451-1.941-9.451-3.003c0-1.056,3.589-3.003,9.451-3.003v-2.667c-6.021,0-12.117,1.947-12.117,5.669
		c0,3.717,6.101,5.669,12.117,5.669c3.221,0,6.219-0.533,8.459-1.499C130.581,309.925,130.896,309.136,130.603,308.459z"/>
	<path style="fill:#3A556A;" d="M130.603,320.213c-0.293-0.672-1.083-0.987-1.755-0.693c-1.883,0.811-4.576,1.28-7.397,1.28
		c-5.867,0-9.451-1.941-9.451-3.003c0-1.056,3.589-3.003,9.451-3.003v-2.667c-6.021,0-12.117,1.947-12.117,5.669
		c0,3.717,6.101,5.669,12.117,5.669c3.221,0,6.219-0.533,8.459-1.499C130.581,321.675,130.896,320.891,130.603,320.213z"/>
	<path style="fill:#3A556A;" d="M130.603,331.968c-0.293-0.672-1.083-0.987-1.755-0.693c-1.883,0.811-4.576,1.28-7.397,1.28
		c-5.867,0-9.451-1.941-9.451-3.003c0-1.056,3.589-3.003,9.451-3.003v-2.667c-6.021,0-12.117,1.947-12.117,5.669
		c0,3.717,6.101,5.669,12.117,5.669c3.221,0,6.219-0.533,8.459-1.499C130.581,333.435,130.896,332.645,130.603,331.968z"/>
	<path style="fill:#3A556A;" d="M130.603,343.723c-0.293-0.672-1.083-0.987-1.755-0.693c-1.883,0.811-4.576,1.28-7.397,1.28
		c-5.867,0-9.451-1.941-9.451-3.003c0-1.056,3.589-3.003,9.451-3.003v-2.667c-6.021,0-12.117,1.947-12.117,5.669
		c0,3.717,6.101,5.669,12.117,5.669c3.221,0,6.219-0.533,8.459-1.499C130.581,345.184,130.896,344.4,130.603,343.723z"/>
	<path style="fill:#3A556A;" d="M130.603,355.477c-0.293-0.672-1.083-0.987-1.755-0.693c-1.883,0.811-4.576,1.28-7.397,1.28
		c-5.867,0-9.451-1.941-9.451-3.003c0-1.056,3.589-3.003,9.451-3.003v-2.667c-6.021,0-12.117,1.947-12.117,5.669
		c0,3.717,6.101,5.669,12.117,5.669c3.221,0,6.219-0.533,8.459-1.499C130.581,356.939,130.896,356.155,130.603,355.477z"/>
	<path style="fill:#3A556A;" d="M130.603,367.232c-0.293-0.672-1.083-0.987-1.755-0.693c-1.883,0.811-4.576,1.28-7.397,1.28
		c-5.867,0-9.451-1.941-9.451-3.003c0-1.056,3.589-3.003,9.451-3.003v-2.667c-6.021,0-12.117,1.947-12.117,5.669
		c0,3.717,6.101,5.669,12.117,5.669c3.221,0,6.219-0.533,8.459-1.499C130.581,368.693,130.896,367.909,130.603,367.232z"/>
	<path style="fill:#3A556A;" d="M130.603,378.987c-0.293-0.672-1.083-0.987-1.755-0.693c-1.883,0.811-4.576,1.28-7.397,1.28
		c-5.867,0-9.451-1.941-9.451-3.003c0-1.056,3.589-3.003,9.451-3.003v-2.667c-6.021,0-12.117,1.947-12.117,5.669
		c0,3.717,6.101,5.669,12.117,5.669c3.221,0,6.219-0.533,8.459-1.499C130.581,380.448,130.896,379.664,130.603,378.987z"/>
	<path style="fill:#3A556A;" d="M130.603,390.741c-0.293-0.672-1.083-0.987-1.755-0.693c-1.883,0.811-4.576,1.28-7.397,1.28
		c-5.867,0-9.451-1.941-9.451-3.003c0-1.056,3.589-3.003,9.451-3.003v-2.667c-6.021,0-12.117,1.947-12.117,5.669
		c0,3.717,6.101,5.669,12.117,5.669c3.221,0,6.219-0.533,8.459-1.499C130.581,392.203,130.896,391.419,130.603,390.741z"/>
</g>
<g>
	<rect x="150.347" y="128.053" style="fill:#E1E6E9;" width="177.867" height="0.533"/>
	<rect x="150.347" y="143.083" style="fill:#E1E6E9;" width="177.867" height="0.533"/>
	<rect x="150.347" y="158.101" style="fill:#E1E6E9;" width="177.867" height="0.533"/>
	<rect x="150.347" y="173.12" style="fill:#E1E6E9;" width="177.867" height="0.533"/>
	<rect x="150.347" y="188.16" style="fill:#E1E6E9;" width="177.867" height="0.533"/>
	<rect x="150.347" y="203.147" style="fill:#E1E6E9;" width="177.867" height="0.533"/>
	<rect x="150.347" y="218.181" style="fill:#E1E6E9;" width="177.867" height="0.533"/>
	<rect x="150.347" y="233.205" style="fill:#E1E6E9;" width="177.867" height="0.533"/>
	<rect x="150.347" y="248.224" style="fill:#E1E6E9;" width="177.867" height="0.533"/>
	<rect x="150.347" y="263.253" style="fill:#E1E6E9;" width="177.867" height="0.533"/>
	<rect x="150.347" y="278.24" style="fill:#E1E6E9;" width="177.867" height="0.533"/>
	<rect x="150.347" y="293.285" style="fill:#E1E6E9;" width="177.867" height="0.533"/>
	<rect x="150.347" y="308.309" style="fill:#E1E6E9;" width="177.867" height="0.533"/>
	<rect x="150.347" y="323.307" style="fill:#E1E6E9;" width="177.867" height="0.533"/>
	<rect x="150.347" y="338.347" style="fill:#E1E6E9;" width="177.867" height="0.533"/>
	<rect x="150.347" y="353.387" style="fill:#E1E6E9;" width="177.867" height="0.533"/>
	<rect x="150.347" y="368.373" style="fill:#E1E6E9;" width="177.867" height="0.533"/>
	<rect x="150.347" y="383.408" style="fill:#E1E6E9;" width="177.867" height="0.533"/>
</g>
<path style="fill:#64798A;" d="M250.603,355.952L250.603,355.952c-0.965-0.725-1.264-1.888-0.629-2.475l-0.229,0.219
	c-0.549,0.512-1.584,0.427-2.421-0.203c-0.837-0.629-1.211-1.6-0.875-2.267l0.144-0.283c-0.389,0.773-1.589,0.816-2.555,0.091l0,0
	c-0.667-0.501-1.045-1.243-0.949-1.861l0.192-1.232l0,0l-1.291,8.117c-0.32,2.005,2.544,4.149,4.379,3.28l7.232-3.435l-0.939,0.443
	C252.091,356.603,251.275,356.453,250.603,355.952z"/>
<path style="fill:#F6C358;" d="M385.365,179.355l11.077-17.237c-2.32-1.947-4.997-3.952-7.52-5.632l-14.421,15.621
	C376.987,174.011,382.843,177.499,385.365,179.355z"/>
<path style="fill:#DC8744;" d="M396.443,162.117l-12.827,17.237c2.517,1.856,5.029,3.616,7.589,5.435l11.339-15.147
	C403.312,168.619,400.411,165.456,396.443,162.117z"/>
<path style="fill:#FCD462;" d="M244.032,351.029L244.032,351.029c0.965,0.725,2.165,0.683,2.555-0.091l0.64-1.264l5.472-10.837
	c0.107-0.213,0.939-1.733,0.901-1.989c-1.275,0.885-4.219,1.92-5.995,0.587c-1.195-0.896-1.963-2.085-2.187-3.221
	c0,0.005-0.005,0.011-0.005,0.021l-2.133,13.701l-0.192,1.232C242.987,349.787,243.365,350.528,244.032,351.029z"/>
<path style="fill:#F6C358;" d="M261.216,343.003c-1.291,0.555-4.517,1.237-6.091,0.064c-1.573-1.179-1.925-4.517-1.76-5.909
	c-0.155,0.101-0.768,1.883-0.853,2.053l-5.285,10.464l-0.64,1.264l-0.144,0.283c-0.336,0.667,0.037,1.643,0.875,2.267
	c0.837,0.629,1.877,0.715,2.421,0.203l0.229-0.219l0,0l1.035-0.971l8.555-8.016C259.701,344.352,261.157,343.184,261.216,343.003z"
	/>
<path style="fill:#FCD462;" d="M262.645,348.693c-1.776-1.333-2.155-4.341-1.669-5.813c-0.256,0.037-0.939,1.157-1.115,1.323
	l-8.859,8.304l-1.035,0.971l0,0c-0.629,0.592-0.336,1.755,0.629,2.475l0,0c0.667,0.501,1.488,0.656,2.053,0.389l0.939-0.443
	l12.736-6c0.005-0.005,0.011-0.005,0.016-0.011C265.2,349.989,263.84,349.589,262.645,348.693z"/>
<path style="fill:#D15241;" d="M253.365,337.573c-0.267,0.357-0.421,0.779-0.48,1.227c-0.165,1.392,0.667,3.088,2.235,4.261
	c1.573,1.179,3.429,1.499,4.72,0.944c0.416-0.176,0.773-0.443,1.04-0.805L382.4,182.139l-8.757-6.773L253.365,337.573z"/>
<path style="fill:#CE412D;" d="M260.885,343.205c-0.16,0.213-0.277,0.448-0.357,0.699c-0.491,1.472,0.341,3.461,2.117,4.795
	c1.195,0.896,2.555,1.291,3.707,1.189c0.853-0.075,1.589-0.421,2.059-1.051L388.16,188.864l0.816-1.093l-7.52-5.632L260.885,343.205
	z"/>
<path style="fill:#FCD462;" d="M388.917,156.491c-4.315-2.869-8.171-4.763-8.944-3.733l-11.152,14.901
	c2.469,1.941,4.987,3.573,7.477,5.467L388.917,156.491z"/>
<path style="fill:#E56353;" d="M247.6,337.435c1.776,1.328,3.92,1.568,5.195,0.683c0.213-0.149,0.411-0.325,0.571-0.539
	l120.565-161.061l-7.52-5.632l-0.816,1.088L245.84,331.947c-0.469,0.629-0.592,1.435-0.427,2.267
	C245.643,335.349,246.405,336.539,247.6,337.435z"/>
<path style="fill:#EBF0F3;" d="M376.955,172.475c-2.485-1.899-4.965-3.808-7.424-5.76l-3.493,4.667l7.52,5.632l7.52,5.632
	l7.52,5.632l3.493-4.667c-2.565-1.813-5.099-3.653-7.616-5.504C381.952,176.251,379.445,174.373,376.955,172.475z"/>
</svg>