<?xml version="1.0" encoding="iso-8859-1"?>
<!-- Uploaded to: SVG Repo, www.svgrepo.com, Generator: SVG Repo Mixer Tools -->
<svg height="800px" width="800px" version="1.1" id="Layer_1" xmlns="http://www.w3.org/2000/svg" xmlns:xlink="http://www.w3.org/1999/xlink" 
	 viewBox="0 0 496.182 496.182" xml:space="preserve">
<path style="fill:#337180;" d="M248.094,0C111.074,0,0,111.063,0,248.091c0,137.012,111.074,248.091,248.094,248.091
	c137.012,0,248.088-111.079,248.088-248.091C496.182,111.063,385.106,0,248.094,0z"/>
<path style="fill:#D4D8D8;" d="M247.756,111.076c-33.779,0-54.947-20.814-54.986-20.854c0.079,0.183,39.191,89.853,54.986,89.853
	c15.793,0,54.907-89.67,54.986-89.853C302.703,90.261,281.533,111.076,247.756,111.076z"/>
<path style="fill:#FFFFFF;" d="M246.037,71.133c-42,0-60.25,5.25-60.25,5.25v42.75h122v-42.75
	C307.787,76.383,288.037,71.133,246.037,71.133z"/>
<path style="fill:#D4D8D8;" d="M246.037,99.133c-42,0-60.25,5.25-60.25,5.25v42.75h122v-42.75
	C307.787,104.383,288.037,99.133,246.037,99.133z"/>
<path style="fill:#EAEAEA;" d="M406.541,240.409c-4.291-26-16.736-60.063-46.736-119.311c-8.449-16.688-57.061-30.879-57.061-30.879
	l-0.002,0.004l0.002-0.001c0,0-36.588,98.327-55.272,98.327s-54.704-98.328-54.704-98.328l0.002,0.001l-0.002-0.004
	c0,0-48.811,14.1-57.062,30.879c-27.234,55.385-42.445,93.311-46.735,119.311c-4.291,26,3.402,155.667,3.402,155.667
	s7.516,0.25,16.016-1.5s11.984-6.5,11.984-6.5s2.307-122.333,5.983-137.667s30.692-54.788,30.692-54.788l12.882,101.454l-16.382,111
	c0,13.5,17.218,16.846,38.465,16.846h111.483c21.247,0,38.466-3.346,38.466-16.846l-16.383-111l12.883-101.454
	c0,0,27.015,39.455,30.691,54.788c3.678,15.333,5.984,137.667,5.984,137.667s2.75,3.5,11.25,6.5s16.75,1.5,16.75,1.5
	S410.832,266.409,406.541,240.409z"/>
<g>
	<path style="fill:#F9F9F9;" d="M406.564,370.313c0,0-31.284-7.647-34.065-6.257c0,0-1.391,15.295-1.391,22.247
		c0,0,6.258,15.99,36.847,13.905C407.954,400.209,410.039,372.399,406.564,370.313z"/>
	<path style="fill:#F9F9F9;" d="M123.684,364.056c-2.781-1.391-34.065,6.257-34.065,6.257c-3.476,2.086-1.391,29.896-1.391,29.896
		c30.589,2.085,36.847-13.905,36.847-13.905C125.074,379.351,123.684,364.056,123.684,364.056z"/>
</g>
<g>
	<circle style="fill:#D3D3D3;" cx="379.261" cy="358.481" r="1.971"/>
	<circle style="fill:#D3D3D3;" cx="378.981" cy="350.881" r="1.971"/>
	<circle style="fill:#D3D3D3;" cx="378.701" cy="343.561" r="1.971"/>
	<circle style="fill:#D3D3D3;" cx="117.311" cy="358.481" r="1.971"/>
	<circle style="fill:#D3D3D3;" cx="117.591" cy="350.881" r="1.971"/>
	<circle style="fill:#D3D3D3;" cx="117.871" cy="343.561" r="1.971"/>
</g>
<path style="fill:#FFFFFF;" d="M300.838,90.218l-0.002,0.004c-0.069,0.161-60.74,99.494-60.74,99.494v235.333h13.111
	c0,0,0-225.667,0-230.947s44.891-69.223,59.303-100.066C305.653,91.609,300.838,90.218,300.838,90.218z"/>
<path style="fill:#F9F9F9;" d="M190.287,91.133c0,0-2.334,0.477-9.191,2.904c14.412,30.843,59.303,94.786,59.303,100.066
	s0,230.947,0,230.947h13.111V189.716C253.51,189.716,190.357,91.293,190.287,91.133z"/>
<g>
	<path style="fill:#FFFFFF;" d="M193.537,89.633l-4,0.75c0,0-3.084,1.227-9.941,3.654c14.412,30.843,59.303,94.786,59.303,100.066
		s0,230.947,0,230.947h13.111V189.716C252.01,189.716,193.607,89.793,193.537,89.633z"/>
	<path style="fill:#FFFFFF;" d="M192.768,90.218l-6.98-13.836c0,0-11,23-30.5,40.5l37-1l24.25,13.25L192.768,90.218z"/>
	<path style="fill:#FFFFFF;" d="M307.787,76.383l-6.98,13.836l-23.77,38.914l24.25-13.25l37,1
		C318.787,99.383,307.787,76.383,307.787,76.383z"/>
</g>
<circle style="fill:#EDEDED;" cx="245.331" cy="190.011" r="4.166"/>
<g>
	<circle style="fill:#E0E0E0;" cx="243.631" cy="188.481" r="0.922"/>
	<circle style="fill:#E0E0E0;" cx="247.031" cy="188.481" r="0.922"/>
	<circle style="fill:#E0E0E0;" cx="243.631" cy="191.371" r="0.921"/>
	<circle style="fill:#E0E0E0;" cx="247.031" cy="191.371" r="0.921"/>
</g>
<circle style="fill:#EDEDED;" cx="245.331" cy="234.711" r="4.166"/>
<g>
	<circle style="fill:#E0E0E0;" cx="243.631" cy="233.191" r="0.922"/>
	<circle style="fill:#E0E0E0;" cx="247.031" cy="233.191" r="0.922"/>
	<circle style="fill:#E0E0E0;" cx="243.631" cy="236.081" r="0.921"/>
	<circle style="fill:#E0E0E0;" cx="247.031" cy="236.081" r="0.921"/>
</g>
<circle style="fill:#EDEDED;" cx="245.331" cy="279.421" r="4.167"/>
<g>
	<circle style="fill:#E0E0E0;" cx="243.631" cy="277.901" r="0.922"/>
	<circle style="fill:#E0E0E0;" cx="247.031" cy="277.901" r="0.922"/>
	<circle style="fill:#E0E0E0;" cx="243.631" cy="280.781" r="0.921"/>
	<circle style="fill:#E0E0E0;" cx="247.031" cy="280.781" r="0.921"/>
</g>
<circle style="fill:#EDEDED;" cx="245.331" cy="324.131" r="4.166"/>
<g>
	<circle style="fill:#E0E0E0;" cx="243.631" cy="322.611" r="0.922"/>
	<circle style="fill:#E0E0E0;" cx="247.031" cy="322.611" r="0.922"/>
	<circle style="fill:#E0E0E0;" cx="243.631" cy="325.491" r="0.922"/>
	<circle style="fill:#E0E0E0;" cx="247.031" cy="325.491" r="0.922"/>
</g>
<circle style="fill:#EDEDED;" cx="245.331" cy="368.841" r="4.166"/>
<g>
	<circle style="fill:#E0E0E0;" cx="243.631" cy="367.321" r="0.921"/>
	<circle style="fill:#E0E0E0;" cx="247.031" cy="367.321" r="0.921"/>
	<circle style="fill:#E0E0E0;" cx="243.631" cy="370.201" r="0.922"/>
	<circle style="fill:#E0E0E0;" cx="247.031" cy="370.201" r="0.922"/>
</g>
<circle style="fill:#EDEDED;" cx="245.331" cy="413.551" r="4.166"/>
<g>
	<circle style="fill:#E0E0E0;" cx="243.631" cy="412.021" r="0.921"/>
	<circle style="fill:#E0E0E0;" cx="247.031" cy="412.021" r="0.921"/>
	<circle style="fill:#E0E0E0;" cx="243.631" cy="414.911" r="0.921"/>
	<circle style="fill:#E0E0E0;" cx="247.031" cy="414.911" r="0.921"/>
</g>
<g>
	<path style="fill:#D4D8D8;" d="M157.373,177.075c-0.25-7.75-3.334-26-3.334-26s-1,29,2.857,44.546
		C156.897,195.621,157.623,184.825,157.373,177.075z"/>
	<path style="fill:#D4D8D8;" d="M341.472,151.075c0,0-3.083,18.25-3.333,26s0.477,18.546,0.477,18.546
		C342.472,180.075,341.472,151.075,341.472,151.075z"/>
</g>
</svg>